<svg xmlns="http://www.w3.org/2000/svg" width="19" height="19" viewBox="0 0 19 19" fill="none">
<g id="ri:instagram-fill">
<path id="Vector" d="M10.314 1.58337C11.2046 1.58575 11.6566 1.5905 12.0469 1.60158L12.2005 1.60712C12.3778 1.61346 12.5528 1.62137 12.7642 1.63087C13.6065 1.67046 14.1813 1.80346 14.6855 1.999C15.208 2.20008 15.6482 2.47242 16.0884 2.91179C16.4909 3.30754 16.8024 3.78626 17.0012 4.31462C17.1967 4.81892 17.3297 5.39367 17.3693 6.23679C17.3788 6.44737 17.3867 6.62233 17.393 6.80046L17.3978 6.95404C17.4097 7.34354 17.4144 7.79558 17.416 8.68621L17.4168 9.27679V10.3139C17.4187 10.8913 17.4127 11.4688 17.3986 12.046L17.3938 12.1996C17.3875 12.3777 17.3796 12.5527 17.3701 12.7633C17.3305 13.6064 17.1959 14.1804 17.0012 14.6855C16.803 15.2141 16.4914 15.6929 16.0884 16.0883C15.6925 16.4907 15.2138 16.8022 14.6855 17.0011C14.1813 17.1966 13.6065 17.3296 12.7642 17.3692C12.5763 17.3781 12.3884 17.386 12.2005 17.393L12.0469 17.3977C11.6566 17.4088 11.2046 17.4143 10.314 17.4159L9.72338 17.4167H8.68709C8.10938 17.4187 7.53167 17.4126 6.95413 17.3985L6.80055 17.3937C6.61261 17.3866 6.42472 17.3784 6.23688 17.3692C5.39455 17.3296 4.8198 17.1966 4.31471 17.0011C3.78641 16.8027 3.30789 16.4911 2.91267 16.0883C2.50975 15.6927 2.19798 15.2139 1.99909 14.6855C1.80355 14.1812 1.67055 13.6064 1.63096 12.7633C1.62214 12.5754 1.61423 12.3875 1.60721 12.1996L1.60326 12.046C1.58867 11.4688 1.58207 10.8913 1.58346 10.3139V8.68621C1.58126 8.10877 1.58706 7.53132 1.60088 6.95404L1.60642 6.80046C1.61276 6.62233 1.62067 6.44737 1.63017 6.23679C1.66976 5.39367 1.80276 4.81971 1.9983 4.31462C2.1971 3.78571 2.50949 3.30685 2.91346 2.91179C3.30858 2.50921 3.78679 2.1977 4.31471 1.999C4.8198 1.80346 5.39376 1.67046 6.23688 1.63087C6.44746 1.62137 6.62321 1.61346 6.80055 1.60712L6.95413 1.60237C7.53141 1.58831 8.10885 1.58224 8.6863 1.58417L10.314 1.58337ZM9.50013 5.54171C8.45032 5.54171 7.4435 5.95874 6.70117 6.70108C5.95884 7.44341 5.5418 8.45022 5.5418 9.50004C5.5418 10.5499 5.95884 11.5567 6.70117 12.299C7.4435 13.0413 8.45032 13.4584 9.50013 13.4584C10.5499 13.4584 11.5568 13.0413 12.2991 12.299C13.0414 11.5567 13.4585 10.5499 13.4585 9.50004C13.4585 8.45022 13.0414 7.44341 12.2991 6.70108C11.5568 5.95874 10.5499 5.54171 9.50013 5.54171ZM9.50013 7.12504C9.81202 7.12499 10.1209 7.18637 10.409 7.30568C10.6972 7.42498 10.9591 7.59988 11.1796 7.82038C11.4002 8.04088 11.5752 8.30267 11.6946 8.5908C11.814 8.87893 11.8755 9.18776 11.8755 9.49964C11.8756 9.81153 11.8142 10.1204 11.6949 10.4085C11.5756 10.6967 11.4007 10.9586 11.1802 11.1791C10.9597 11.3997 10.6979 11.5747 10.4098 11.6941C10.1216 11.8135 9.81281 11.875 9.50092 11.875C8.87103 11.875 8.26694 11.6248 7.82154 11.1794C7.37615 10.734 7.12592 10.1299 7.12592 9.50004C7.12592 8.87015 7.37615 8.26606 7.82154 7.82066C8.26694 7.37526 8.87103 7.12504 9.50092 7.12504M13.6572 4.35421C13.3947 4.35421 13.143 4.45847 12.9574 4.64405C12.7718 4.82963 12.6676 5.08134 12.6676 5.34379C12.6676 5.60624 12.7718 5.85795 12.9574 6.04353C13.143 6.22911 13.3947 6.33337 13.6572 6.33337C13.9196 6.33337 14.1713 6.22911 14.3569 6.04353C14.5425 5.85795 14.6468 5.60624 14.6468 5.34379C14.6468 5.08134 14.5425 4.82963 14.3569 4.64405C14.1713 4.45847 13.9196 4.35421 13.6572 4.35421Z" fill="#D6BB2C"/>
</g>
</svg>