<svg xmlns="http://www.w3.org/2000/svg" width="84" height="106" viewBox="0 0 84 106" fill="none">
  <path d="M42.0003 0.847229C24.8317 0.847229 10.7617 14.8956 10.7617 32.0419C10.7617 38.6854 12.8806 44.86 16.4664 49.9347L38.1877 87.5405C41.2296 91.5205 43.2519 90.7645 45.7813 87.3302L69.7402 46.4993C70.2232 45.6224 70.6033 44.6886 70.9341 43.7349C72.4544 40.0245 73.2363 36.0525 73.2357 32.0419C73.2367 14.8956 59.1709 0.847229 42.0003 0.847229ZM42.0003 15.4635C51.2466 15.4635 58.5987 22.8095 58.5987 32.0419C58.5987 41.2743 51.2466 48.6171 42.0003 48.6171C32.755 48.6171 25.3998 41.2753 25.3998 32.0419C25.3998 22.8095 32.755 15.4645 42.0003 15.4645" fill="url(#paint0_linear_1_3133)"/>
  <path d="M61.8587 52.2753L61.8082 52.4078C61.824 52.3678 61.8366 52.3268 61.8523 52.2869L61.8587 52.2753ZM25.2063 73.4625C10.374 75.5614 0 80.5824 0 87.9736C0 97.9295 17.3334 106 42 106C66.6666 106 84 97.9295 84 87.9736C84 80.5824 73.6271 75.5614 58.7958 73.4625L56.7409 76.9662C67.9193 78.5193 75.6 81.7833 75.6 85.5709C75.6 90.8811 60.5566 95.185 42 95.185C23.4433 95.185 8.4 90.8811 8.4 85.5709C8.39895 81.7959 16.0293 78.5351 27.2422 76.9757C26.565 75.8043 25.8846 74.635 25.2063 73.4625Z" fill="url(#paint1_linear_1_3133)"/>
  <circle cx="41" cy="32.0001" r="20" fill="url(#paint2_linear_1_3133)"/>
  <defs>
    <linearGradient id="paint0_linear_1_3133" x1="41.9987" y1="0.847229" x2="41.9987" y2="90.2275" gradientUnits="userSpaceOnUse">
      <stop stop-color="#D6BB2C"/>
      <stop offset="1" stop-color="#D6BB2C" stop-opacity="0"/>
    </linearGradient>
    <linearGradient id="paint1_linear_1_3133" x1="42" y1="52.2753" x2="42" y2="106" gradientUnits="userSpaceOnUse">
      <stop stop-color="#D6BB2C"/>
      <stop offset="1" stop-color="#D6BB2C" stop-opacity="0"/>
    </linearGradient>
    <linearGradient id="paint2_linear_1_3133" x1="41" y1="12.0001" x2="41" y2="52.0001" gradientUnits="userSpaceOnUse">
      <stop stop-color="#D6BB2C"/>
      <stop offset="1" stop-color="#D6BB2C" stop-opacity="0"/>
    </linearGradient>
  </defs>
</svg>