<svg xmlns="http://www.w3.org/2000/svg" width="16" height="15" viewBox="0 0 16 15" fill="none">
<g id="calling-icon 2" clip-path="url(#clip0_837_835)">
<g id="Group">
<path id="Vector" d="M3.80488 7.14343C4.26972 7.95584 4.80358 8.73541 5.50019 9.44801C6.1955 10.1644 7.06269 10.8151 8.18509 11.371C8.26842 11.4102 8.34785 11.4102 8.41686 11.3837C8.52363 11.3445 8.633 11.2586 8.73977 11.155C8.82311 11.0741 8.92597 10.9452 9.03405 10.805C9.46503 10.2541 10.0002 9.57057 10.7541 9.9117C10.771 9.91928 10.784 9.92813 10.7997 9.93571L13.3166 11.3394C13.3244 11.3432 13.3335 11.3521 13.3413 11.3559C13.6734 11.577 13.8101 11.9194 13.814 12.306C13.814 12.7002 13.6643 13.1437 13.4455 13.5164C13.1564 14.0104 12.7281 14.3377 12.2359 14.5537C11.7671 14.7635 11.245 14.8759 10.7437 14.9479C9.95592 15.0604 9.21894 14.9884 8.46504 14.7635C7.72675 14.5423 6.98457 14.1759 6.17337 13.6895L6.11347 13.6529C5.74108 13.428 5.33873 13.1854 4.9442 12.9011C3.49889 11.8423 2.02753 10.3148 1.0692 8.63307C0.264514 7.2205 -0.174289 5.69674 0.0652948 4.24375C0.198107 3.44776 0.54967 2.72378 1.16425 2.24493C1.69941 1.82671 2.41946 1.59676 3.35306 1.67762C3.45983 1.68521 3.55618 1.74585 3.60566 1.8343L5.21894 4.48002C5.45462 4.77693 5.48457 5.07132 5.35566 5.36571C5.24889 5.60704 5.03274 5.82941 4.73847 6.03662C4.65123 6.10864 4.54837 6.18192 4.4403 6.25773C4.07962 6.51169 3.66946 6.80481 3.81009 7.15101L3.80488 7.14343ZM9.55097 0.953652C9.48457 0.948598 9.42207 0.93091 9.36608 0.903113C9.30748 0.874053 9.2567 0.834885 9.21503 0.788137C9.17337 0.740124 9.14082 0.685795 9.11998 0.625148C9.10175 0.567028 9.09394 0.505118 9.09915 0.44068L9.10045 0.431836C9.10566 0.369926 9.12389 0.311806 9.15123 0.260003L9.15644 0.251159C9.18509 0.198093 9.22415 0.151344 9.26972 0.114703C9.3179 0.0742721 9.37519 0.0426851 9.43769 0.0224695C9.49629 0.00351734 9.55879 -0.00406353 9.62259 -0.000273095L9.63561 0.000990382C10.0822 0.0351043 10.5132 0.100805 10.9273 0.196829C11.3452 0.294117 11.7437 0.424255 12.12 0.58219C12.4989 0.742651 12.8557 0.933436 13.1877 1.15328C13.5184 1.37313 13.827 1.62203 14.107 1.89873C14.3843 2.17291 14.6356 2.47488 14.8583 2.80212C15.0783 3.12683 15.2697 3.47682 15.4312 3.84828C15.5874 4.21216 15.715 4.59878 15.8114 5.00815C15.9051 5.40867 15.9689 5.82941 16.0002 6.2691L16.0015 6.29058V6.31332C16.0015 6.37144 15.9911 6.4283 15.9715 6.48136C15.9507 6.53822 15.9195 6.58876 15.8791 6.63298C15.8387 6.6772 15.7906 6.71384 15.7359 6.74164C15.6851 6.76817 15.6265 6.7846 15.5653 6.79218L15.5393 6.79471H15.5145C15.4533 6.79597 15.3947 6.78586 15.34 6.76565C15.2827 6.74543 15.2294 6.71511 15.1838 6.67594C15.1356 6.63551 15.0952 6.58497 15.0666 6.52811C15.0393 6.47378 15.021 6.41187 15.0171 6.3487C14.9898 5.95828 14.9351 5.58682 14.8531 5.23684C14.771 4.87928 14.6603 4.54193 14.5249 4.22479C14.3895 3.9064 14.2268 3.60822 14.0406 3.33278C13.8518 3.05355 13.6395 2.79833 13.4051 2.56585C13.1682 2.33211 12.909 2.12237 12.6278 1.93664C12.3452 1.74964 12.0406 1.58792 11.715 1.45146L11.7098 1.44894C11.3869 1.31374 11.0445 1.20256 10.6838 1.11917C10.3244 1.03957 9.94681 0.982712 9.55097 0.953652ZM8.46764 5.45921C8.40123 5.45289 8.33873 5.43268 8.28405 5.40488C8.22675 5.37456 8.17597 5.33413 8.13691 5.28611C8.09915 5.24063 8.0692 5.18756 8.04967 5.13071C8.03144 5.07764 8.02363 5.02078 8.02623 4.96266C8.02754 4.94624 8.02753 4.9336 8.03014 4.91844C8.03925 4.8578 8.06009 4.80094 8.08873 4.75166C8.11868 4.69986 8.15905 4.65438 8.20592 4.61774C8.2528 4.58109 8.30748 4.55203 8.36608 4.53308C8.42076 4.51666 8.47936 4.50781 8.54056 4.51034L8.58613 4.51413C8.78014 4.53435 8.96634 4.5672 9.14602 4.61142C9.32832 4.6569 9.50149 4.71502 9.66425 4.78325L9.66946 4.78578C9.83483 4.85653 9.98977 4.93866 10.1343 5.03342C10.2801 5.12944 10.4156 5.23684 10.5406 5.35813C10.6643 5.47816 10.7762 5.6083 10.8752 5.74981C10.9741 5.89006 11.0601 6.04041 11.1343 6.20214C11.2059 6.36007 11.2658 6.52811 11.3127 6.705C11.3583 6.8781 11.3908 7.06256 11.4116 7.25714C11.4182 7.32158 11.4117 7.38475 11.3947 7.44287L11.3934 7.44792C11.3752 7.50604 11.3439 7.56037 11.3062 7.60712L11.3049 7.60965C11.2645 7.65766 11.215 7.69683 11.1577 7.72715C11.1031 7.75621 11.0406 7.77516 10.9741 7.78148H10.9676C10.9038 7.78654 10.8413 7.78022 10.7827 7.76379C10.7202 7.7461 10.663 7.71578 10.6135 7.67661H10.6122C10.5627 7.63745 10.521 7.58943 10.4898 7.53258C10.4598 7.47951 10.4403 7.41886 10.4338 7.35569V7.35064C10.4195 7.21292 10.396 7.08152 10.3635 6.95643C10.3309 6.82882 10.2893 6.71005 10.2398 6.60013C10.1903 6.49021 10.133 6.38787 10.0679 6.29437C10.0015 6.19961 9.92858 6.11369 9.84785 6.03536C9.76712 5.95702 9.67727 5.88627 9.57962 5.82309C9.48196 5.75992 9.37519 5.70433 9.25931 5.65505L9.2528 5.65252C9.13951 5.60451 9.01712 5.56534 8.88821 5.53376C8.7528 5.49712 8.61347 5.47437 8.46764 5.45921ZM8.98847 3.2835H8.97545L8.95852 3.28098C8.89733 3.27466 8.84004 3.25697 8.78925 3.2317C8.73457 3.2039 8.68639 3.16726 8.64602 3.12431C8.60436 3.07882 8.57181 3.02702 8.55097 2.9689C8.53144 2.91457 8.52102 2.85645 8.52233 2.79454V2.77306L8.52493 2.75284C8.53144 2.69472 8.54967 2.63913 8.57571 2.58985C8.60436 2.53679 8.64212 2.48878 8.68639 2.45087C8.73457 2.40918 8.79056 2.37759 8.85306 2.35611C8.91295 2.3359 8.97675 2.32705 9.04316 2.33084C9.38951 2.35106 9.71894 2.39402 10.0301 2.45845C10.3426 2.52289 10.6382 2.61007 10.913 2.71873C11.1903 2.82865 11.4494 2.96132 11.689 3.11546C11.926 3.26834 12.1447 3.44397 12.3413 3.64233C12.5366 3.83817 12.7111 4.05549 12.8622 4.29302C13.0119 4.52803 13.1408 4.78325 13.245 5.05743C13.3465 5.32528 13.4273 5.61336 13.4846 5.92164C13.5406 6.22488 13.5744 6.54454 13.5848 6.88441L13.5861 6.9021C13.5861 6.96275 13.5744 7.02213 13.551 7.07646C13.5275 7.13332 13.4937 7.18386 13.452 7.22808C13.409 7.27356 13.3557 7.31021 13.2958 7.33547C13.2398 7.36074 13.176 7.37464 13.1096 7.37717H13.0874C13.0249 7.37591 12.9663 7.36453 12.9117 7.34306C12.8531 7.32031 12.801 7.28746 12.7567 7.24703C12.7098 7.20407 12.6721 7.15353 12.6447 7.09541C12.6187 7.03982 12.6044 6.97917 12.6018 6.91347C12.5939 6.63045 12.5653 6.36386 12.5197 6.11243C12.4742 5.85847 12.409 5.6222 12.3283 5.40488C12.2476 5.18756 12.1486 4.98793 12.034 4.80473C11.9182 4.62026 11.7853 4.45475 11.6369 4.30439C11.4859 4.15404 11.3192 4.01885 11.1356 3.90134C10.9507 3.78258 10.7463 3.68024 10.5275 3.59432L10.5223 3.59179C10.301 3.50714 10.064 3.43765 9.81009 3.38585C9.55488 3.33404 9.28274 3.29867 8.99628 3.28224L8.98847 3.2835Z" fill="#D6BB2C"/>
</g>
</g>
<defs>
<clipPath id="clip0_837_835">
<rect width="16" height="15" fill="white"/>
</clipPath>
</defs>
</svg>